<?xml version="1.0" encoding="utf-8" standalone="no"?>
<!DOCTYPE svg PUBLIC "-//W3C//DTD SVG 1.1//EN"
  "http://www.w3.org/Graphics/SVG/1.1/DTD/svg11.dtd">
<svg xmlns:xlink="http://www.w3.org/1999/xlink" width="460.691729pt" height="345.383459pt" viewBox="0 0 460.691729 345.383459" xmlns="http://www.w3.org/2000/svg" version="1.1">
 <metadata>
  <rdf:RDF xmlns:dc="http://purl.org/dc/elements/1.1/" xmlns:cc="http://creativecommons.org/ns#" xmlns:rdf="http://www.w3.org/1999/02/22-rdf-syntax-ns#">
   <cc:Work>
    <dc:type rdf:resource="http://purl.org/dc/dcmitype/StillImage"/>
    <dc:date>2023-01-06T16:19:45.366977</dc:date>
    <dc:format>image/svg+xml</dc:format>
    <dc:creator>
     <cc:Agent>
      <dc:title>Matplotlib v3.5.1, https://matplotlib.org/</dc:title>
     </cc:Agent>
    </dc:creator>
   </cc:Work>
  </rdf:RDF>
 </metadata>
 <defs>
  <style type="text/css">*{stroke-linejoin: round; stroke-linecap: butt}</style>
 </defs>
 <g id="figure_1">
  <g id="patch_1">
   <path d="M 0 345.383459 
L 460.691729 345.383459 
L 460.691729 0 
L 0 0 
z
" style="fill: #ffffff"/>
  </g>
  <g id="axes_1">
   <g id="patch_2">
    <path d="M 320.985516 172.691729 
L 343.645429 211.93985 
L 298.325603 211.93985 
z
" clip-path="url(#p6ba1527eaa)" style="fill: #ffffff"/>
   </g>
   <g id="patch_3">
    <path d="M 185.026039 251.18797 
L 162.366126 211.93985 
L 207.685952 211.93985 
z
" clip-path="url(#p6ba1527eaa)" style="fill: #ffffff"/>
   </g>
   <g id="patch_4">
    <path d="M 185.026039 172.691729 
L 162.366126 133.443609 
L 207.685952 133.443609 
z
" clip-path="url(#p6ba1527eaa)" style="fill: #ffffff"/>
   </g>
   <g id="patch_5">
    <path d="M 230.345865 94.195489 
L 253.005777 133.443609 
L 207.685952 133.443609 
z
" clip-path="url(#p6ba1527eaa)" style="fill: #ffffff"/>
   </g>
   <g id="patch_6">
    <path d="M 343.645429 133.443609 
L 320.985516 94.195489 
L 366.305342 94.195489 
z
" clip-path="url(#p6ba1527eaa)" style="fill: #ffffff"/>
   </g>
   <g id="patch_7">
    <path d="M 253.005777 54.947368 
L 275.66569 94.195489 
L 230.345865 94.195489 
z
" clip-path="url(#p6ba1527eaa)" style="fill: #ffffff"/>
   </g>
   <g id="patch_8">
    <path d="M 207.685952 211.93985 
L 185.026039 172.691729 
L 230.345865 172.691729 
z
" clip-path="url(#p6ba1527eaa)" style="fill: #ffffff"/>
   </g>
   <g id="patch_9">
    <path d="M 207.685952 54.947368 
L 230.345865 94.195489 
L 185.026039 94.195489 
z
" clip-path="url(#p6ba1527eaa)" style="fill: #ff0000"/>
   </g>
   <g id="patch_10">
    <path d="M 230.345865 15.699248 
L 253.005777 54.947368 
L 207.685952 54.947368 
z
" clip-path="url(#p6ba1527eaa)" style="fill: #ff0000"/>
   </g>
   <g id="patch_11">
    <path d="M 207.685952 133.443609 
L 185.026039 94.195489 
L 230.345865 94.195489 
z
" clip-path="url(#p6ba1527eaa)" style="fill: #ff0000"/>
   </g>
   <g id="patch_12">
    <path d="M 185.026039 94.195489 
L 207.685952 133.443609 
L 162.366126 133.443609 
z
" clip-path="url(#p6ba1527eaa)" style="fill: #ff0000"/>
   </g>
   <g id="patch_13">
    <path d="M 230.345865 94.195489 
L 207.685952 54.947368 
L 253.005777 54.947368 
z
" clip-path="url(#p6ba1527eaa)" style="fill: #ff0000"/>
   </g>
   <g id="patch_14">
    <path d="M 320.985516 251.18797 
L 298.325603 211.93985 
L 343.645429 211.93985 
z
" clip-path="url(#p6ba1527eaa)" style="fill: #ffc0cb"/>
   </g>
   <g id="patch_15">
    <path d="M 343.645429 211.93985 
L 366.305342 251.18797 
L 320.985516 251.18797 
z
" clip-path="url(#p6ba1527eaa)" style="fill: #ffc0cb"/>
   </g>
   <g id="patch_16">
    <path d="M 298.325603 211.93985 
L 320.985516 251.18797 
L 275.66569 251.18797 
z
" clip-path="url(#p6ba1527eaa)" style="fill: #ffc0cb"/>
   </g>
   <g id="patch_17">
    <path d="M 275.66569 251.18797 
L 253.005777 211.93985 
L 298.325603 211.93985 
z
" clip-path="url(#p6ba1527eaa)" style="fill: #ffc0cb"/>
   </g>
   <g id="patch_18">
    <path d="M 230.345865 251.18797 
L 207.685952 211.93985 
L 253.005777 211.93985 
z
" clip-path="url(#p6ba1527eaa)" style="fill: #87ceeb"/>
   </g>
   <g id="patch_19">
    <path d="M 253.005777 290.43609 
L 230.345865 251.18797 
L 275.66569 251.18797 
z
" clip-path="url(#p6ba1527eaa)" style="fill: #87ceeb"/>
   </g>
   <g id="patch_20">
    <path d="M 207.685952 211.93985 
L 230.345865 251.18797 
L 185.026039 251.18797 
z
" clip-path="url(#p6ba1527eaa)" style="fill: #87ceeb"/>
   </g>
   <g id="patch_21">
    <path d="M 230.345865 251.18797 
L 253.005777 290.43609 
L 207.685952 290.43609 
z
" clip-path="url(#p6ba1527eaa)" style="fill: #87ceeb"/>
   </g>
   <g id="patch_22">
    <path d="M 207.685952 290.43609 
L 185.026039 251.18797 
L 230.345865 251.18797 
z
" clip-path="url(#p6ba1527eaa)" style="fill: #87ceeb"/>
   </g>
   <g id="patch_23">
    <path d="M 253.005777 211.93985 
L 275.66569 251.18797 
L 230.345865 251.18797 
z
" clip-path="url(#p6ba1527eaa)" style="fill: #87ceeb"/>
   </g>
   <g id="patch_24">
    <path d="M 230.345865 329.684211 
L 207.685952 290.43609 
L 253.005777 290.43609 
z
" clip-path="url(#p6ba1527eaa)" style="fill: #4169e1"/>
   </g>
   <g id="patch_25">
    <path d="M 117.046301 133.443609 
L 94.386388 94.195489 
L 139.706213 94.195489 
z
" clip-path="url(#p6ba1527eaa)" style="fill: #8b4513"/>
   </g>
   <g id="patch_26">
    <path d="M 162.366126 133.443609 
L 139.706213 94.195489 
L 185.026039 94.195489 
z
" clip-path="url(#p6ba1527eaa)" style="fill: #8b4513"/>
   </g>
   <g id="patch_27">
    <path d="M 139.706213 94.195489 
L 162.366126 133.443609 
L 117.046301 133.443609 
z
" clip-path="url(#p6ba1527eaa)" style="fill: #8b4513"/>
   </g>
   <g id="patch_28">
    <path d="M 162.366126 133.443609 
L 185.026039 172.691729 
L 139.706213 172.691729 
z
" clip-path="url(#p6ba1527eaa)" style="fill: #8b4513"/>
   </g>
   <g id="patch_29">
    <path d="M 139.706213 172.691729 
L 117.046301 133.443609 
L 162.366126 133.443609 
z
" clip-path="url(#p6ba1527eaa)" style="fill: #8b4513"/>
   </g>
   <g id="patch_30">
    <path d="M 162.366126 211.93985 
L 185.026039 251.18797 
L 139.706213 251.18797 
z
" clip-path="url(#p6ba1527eaa)" style="fill: #800080"/>
   </g>
   <g id="patch_31">
    <path d="M 117.046301 211.93985 
L 139.706213 251.18797 
L 94.386388 251.18797 
z
" clip-path="url(#p6ba1527eaa)" style="fill: #800080"/>
   </g>
   <g id="patch_32">
    <path d="M 139.706213 251.18797 
L 117.046301 211.93985 
L 162.366126 211.93985 
z
" clip-path="url(#p6ba1527eaa)" style="fill: #800080"/>
   </g>
   <g id="patch_33">
    <path d="M 139.706213 172.691729 
L 162.366126 211.93985 
L 117.046301 211.93985 
z
" clip-path="url(#p6ba1527eaa)" style="fill: #800080"/>
   </g>
   <g id="patch_34">
    <path d="M 162.366126 211.93985 
L 139.706213 172.691729 
L 185.026039 172.691729 
z
" clip-path="url(#p6ba1527eaa)" style="fill: #ffff00"/>
   </g>
   <g id="patch_35">
    <path d="M 185.026039 172.691729 
L 207.685952 211.93985 
L 162.366126 211.93985 
z
" clip-path="url(#p6ba1527eaa)" style="fill: #ffff00"/>
   </g>
   <g id="patch_36">
    <path d="M 207.685952 133.443609 
L 230.345865 172.691729 
L 185.026039 172.691729 
z
" clip-path="url(#p6ba1527eaa)" style="fill: #006400"/>
   </g>
   <g id="patch_37">
    <path d="M 253.005777 133.443609 
L 275.66569 172.691729 
L 230.345865 172.691729 
z
" clip-path="url(#p6ba1527eaa)" style="fill: #006400"/>
   </g>
   <g id="patch_38">
    <path d="M 253.005777 211.93985 
L 230.345865 172.691729 
L 275.66569 172.691729 
z
" clip-path="url(#p6ba1527eaa)" style="fill: #006400"/>
   </g>
   <g id="patch_39">
    <path d="M 230.345865 172.691729 
L 207.685952 133.443609 
L 253.005777 133.443609 
z
" clip-path="url(#p6ba1527eaa)" style="fill: #006400"/>
   </g>
   <g id="patch_40">
    <path d="M 230.345865 172.691729 
L 253.005777 211.93985 
L 207.685952 211.93985 
z
" clip-path="url(#p6ba1527eaa)" style="fill: #006400"/>
   </g>
   <g id="patch_41">
    <path d="M 275.66569 172.691729 
L 253.005777 133.443609 
L 298.325603 133.443609 
z
" clip-path="url(#p6ba1527eaa)" style="fill: #ffa500"/>
   </g>
   <g id="patch_42">
    <path d="M 275.66569 172.691729 
L 298.325603 211.93985 
L 253.005777 211.93985 
z
" clip-path="url(#p6ba1527eaa)" style="fill: #ffa500"/>
   </g>
   <g id="patch_43">
    <path d="M 298.325603 211.93985 
L 275.66569 172.691729 
L 320.985516 172.691729 
z
" clip-path="url(#p6ba1527eaa)" style="fill: #ffa500"/>
   </g>
   <g id="patch_44">
    <path d="M 298.325603 133.443609 
L 320.985516 172.691729 
L 275.66569 172.691729 
z
" clip-path="url(#p6ba1527eaa)" style="fill: #ffa500"/>
   </g>
   <g id="patch_45">
    <path d="M 320.985516 172.691729 
L 298.325603 133.443609 
L 343.645429 133.443609 
z
" clip-path="url(#p6ba1527eaa)" style="fill: #7cfc00"/>
   </g>
   <g id="patch_46">
    <path d="M 253.005777 133.443609 
L 230.345865 94.195489 
L 275.66569 94.195489 
z
" clip-path="url(#p6ba1527eaa)" style="fill: #7cfc00"/>
   </g>
   <g id="patch_47">
    <path d="M 320.985516 94.195489 
L 343.645429 133.443609 
L 298.325603 133.443609 
z
" clip-path="url(#p6ba1527eaa)" style="fill: #7cfc00"/>
   </g>
   <g id="patch_48">
    <path d="M 298.325603 133.443609 
L 275.66569 94.195489 
L 320.985516 94.195489 
z
" clip-path="url(#p6ba1527eaa)" style="fill: #7cfc00"/>
   </g>
   <g id="patch_49">
    <path d="M 275.66569 94.195489 
L 298.325603 133.443609 
L 253.005777 133.443609 
z
" clip-path="url(#p6ba1527eaa)" style="fill: #7cfc00"/>
   </g>
   <g id="line2d_1">
    <path d="M 230.345865 15.699248 
L 253.005777 54.947368 
L 207.685952 54.947368 
L 230.345865 15.699248 
" clip-path="url(#p6ba1527eaa)" style="fill: none; stroke: #000000; stroke-width: 1.5; stroke-linecap: square"/>
   </g>
   <g id="line2d_2">
    <path d="M 207.685952 54.947368 
L 230.345865 94.195489 
L 185.026039 94.195489 
L 207.685952 54.947368 
" clip-path="url(#p6ba1527eaa)" style="fill: none; stroke: #000000; stroke-width: 1.5; stroke-linecap: square"/>
   </g>
   <g id="line2d_3">
    <path d="M 230.345865 94.195489 
L 207.685952 54.947368 
L 253.005777 54.947368 
L 230.345865 94.195489 
" clip-path="url(#p6ba1527eaa)" style="fill: none; stroke: #000000; stroke-width: 1.5; stroke-linecap: square"/>
   </g>
   <g id="line2d_4">
    <path d="M 253.005777 54.947368 
L 275.66569 94.195489 
L 230.345865 94.195489 
L 253.005777 54.947368 
" clip-path="url(#p6ba1527eaa)" style="fill: none; stroke: #000000; stroke-width: 1.5; stroke-linecap: square"/>
   </g>
   <g id="line2d_5">
    <path d="M 117.046301 133.443609 
L 94.386388 94.195489 
L 139.706213 94.195489 
L 117.046301 133.443609 
" clip-path="url(#p6ba1527eaa)" style="fill: none; stroke: #000000; stroke-width: 1.5; stroke-linecap: square"/>
   </g>
   <g id="line2d_6">
    <path d="M 139.706213 94.195489 
L 162.366126 133.443609 
L 117.046301 133.443609 
L 139.706213 94.195489 
" clip-path="url(#p6ba1527eaa)" style="fill: none; stroke: #000000; stroke-width: 1.5; stroke-linecap: square"/>
   </g>
   <g id="line2d_7">
    <path d="M 162.366126 133.443609 
L 139.706213 94.195489 
L 185.026039 94.195489 
L 162.366126 133.443609 
" clip-path="url(#p6ba1527eaa)" style="fill: none; stroke: #000000; stroke-width: 1.5; stroke-linecap: square"/>
   </g>
   <g id="line2d_8">
    <path d="M 185.026039 94.195489 
L 207.685952 133.443609 
L 162.366126 133.443609 
L 185.026039 94.195489 
" clip-path="url(#p6ba1527eaa)" style="fill: none; stroke: #000000; stroke-width: 1.5; stroke-linecap: square"/>
   </g>
   <g id="line2d_9">
    <path d="M 207.685952 133.443609 
L 185.026039 94.195489 
L 230.345865 94.195489 
L 207.685952 133.443609 
" clip-path="url(#p6ba1527eaa)" style="fill: none; stroke: #000000; stroke-width: 1.5; stroke-linecap: square"/>
   </g>
   <g id="line2d_10">
    <path d="M 230.345865 94.195489 
L 253.005777 133.443609 
L 207.685952 133.443609 
L 230.345865 94.195489 
" clip-path="url(#p6ba1527eaa)" style="fill: none; stroke: #000000; stroke-width: 1.5; stroke-linecap: square"/>
   </g>
   <g id="line2d_11">
    <path d="M 253.005777 133.443609 
L 230.345865 94.195489 
L 275.66569 94.195489 
L 253.005777 133.443609 
" clip-path="url(#p6ba1527eaa)" style="fill: none; stroke: #000000; stroke-width: 1.5; stroke-linecap: square"/>
   </g>
   <g id="line2d_12">
    <path d="M 275.66569 94.195489 
L 298.325603 133.443609 
L 253.005777 133.443609 
L 275.66569 94.195489 
" clip-path="url(#p6ba1527eaa)" style="fill: none; stroke: #000000; stroke-width: 1.5; stroke-linecap: square"/>
   </g>
   <g id="line2d_13">
    <path d="M 298.325603 133.443609 
L 275.66569 94.195489 
L 320.985516 94.195489 
L 298.325603 133.443609 
" clip-path="url(#p6ba1527eaa)" style="fill: none; stroke: #000000; stroke-width: 1.5; stroke-linecap: square"/>
   </g>
   <g id="line2d_14">
    <path d="M 320.985516 94.195489 
L 343.645429 133.443609 
L 298.325603 133.443609 
L 320.985516 94.195489 
" clip-path="url(#p6ba1527eaa)" style="fill: none; stroke: #000000; stroke-width: 1.5; stroke-linecap: square"/>
   </g>
   <g id="line2d_15">
    <path d="M 343.645429 133.443609 
L 320.985516 94.195489 
L 366.305342 94.195489 
L 343.645429 133.443609 
" clip-path="url(#p6ba1527eaa)" style="fill: none; stroke: #000000; stroke-width: 1.5; stroke-linecap: square"/>
   </g>
   <g id="line2d_16">
    <path d="M 139.706213 172.691729 
L 117.046301 133.443609 
L 162.366126 133.443609 
L 139.706213 172.691729 
" clip-path="url(#p6ba1527eaa)" style="fill: none; stroke: #000000; stroke-width: 1.5; stroke-linecap: square"/>
   </g>
   <g id="line2d_17">
    <path d="M 162.366126 133.443609 
L 185.026039 172.691729 
L 139.706213 172.691729 
L 162.366126 133.443609 
" clip-path="url(#p6ba1527eaa)" style="fill: none; stroke: #000000; stroke-width: 1.5; stroke-linecap: square"/>
   </g>
   <g id="line2d_18">
    <path d="M 185.026039 172.691729 
L 162.366126 133.443609 
L 207.685952 133.443609 
L 185.026039 172.691729 
" clip-path="url(#p6ba1527eaa)" style="fill: none; stroke: #000000; stroke-width: 1.5; stroke-linecap: square"/>
   </g>
   <g id="line2d_19">
    <path d="M 207.685952 133.443609 
L 230.345865 172.691729 
L 185.026039 172.691729 
L 207.685952 133.443609 
" clip-path="url(#p6ba1527eaa)" style="fill: none; stroke: #000000; stroke-width: 1.5; stroke-linecap: square"/>
   </g>
   <g id="line2d_20">
    <path d="M 230.345865 172.691729 
L 207.685952 133.443609 
L 253.005777 133.443609 
L 230.345865 172.691729 
" clip-path="url(#p6ba1527eaa)" style="fill: none; stroke: #000000; stroke-width: 1.5; stroke-linecap: square"/>
   </g>
   <g id="line2d_21">
    <path d="M 253.005777 133.443609 
L 275.66569 172.691729 
L 230.345865 172.691729 
L 253.005777 133.443609 
" clip-path="url(#p6ba1527eaa)" style="fill: none; stroke: #000000; stroke-width: 1.5; stroke-linecap: square"/>
   </g>
   <g id="line2d_22">
    <path d="M 275.66569 172.691729 
L 253.005777 133.443609 
L 298.325603 133.443609 
L 275.66569 172.691729 
" clip-path="url(#p6ba1527eaa)" style="fill: none; stroke: #000000; stroke-width: 1.5; stroke-linecap: square"/>
   </g>
   <g id="line2d_23">
    <path d="M 298.325603 133.443609 
L 320.985516 172.691729 
L 275.66569 172.691729 
L 298.325603 133.443609 
" clip-path="url(#p6ba1527eaa)" style="fill: none; stroke: #000000; stroke-width: 1.5; stroke-linecap: square"/>
   </g>
   <g id="line2d_24">
    <path d="M 320.985516 172.691729 
L 298.325603 133.443609 
L 343.645429 133.443609 
L 320.985516 172.691729 
" clip-path="url(#p6ba1527eaa)" style="fill: none; stroke: #000000; stroke-width: 1.5; stroke-linecap: square"/>
   </g>
   <g id="line2d_25">
    <path d="M 139.706213 172.691729 
L 162.366126 211.93985 
L 117.046301 211.93985 
L 139.706213 172.691729 
" clip-path="url(#p6ba1527eaa)" style="fill: none; stroke: #000000; stroke-width: 1.5; stroke-linecap: square"/>
   </g>
   <g id="line2d_26">
    <path d="M 162.366126 211.93985 
L 139.706213 172.691729 
L 185.026039 172.691729 
L 162.366126 211.93985 
" clip-path="url(#p6ba1527eaa)" style="fill: none; stroke: #000000; stroke-width: 1.5; stroke-linecap: square"/>
   </g>
   <g id="line2d_27">
    <path d="M 185.026039 172.691729 
L 207.685952 211.93985 
L 162.366126 211.93985 
L 185.026039 172.691729 
" clip-path="url(#p6ba1527eaa)" style="fill: none; stroke: #000000; stroke-width: 1.5; stroke-linecap: square"/>
   </g>
   <g id="line2d_28">
    <path d="M 207.685952 211.93985 
L 185.026039 172.691729 
L 230.345865 172.691729 
L 207.685952 211.93985 
" clip-path="url(#p6ba1527eaa)" style="fill: none; stroke: #000000; stroke-width: 1.5; stroke-linecap: square"/>
   </g>
   <g id="line2d_29">
    <path d="M 230.345865 172.691729 
L 253.005777 211.93985 
L 207.685952 211.93985 
L 230.345865 172.691729 
" clip-path="url(#p6ba1527eaa)" style="fill: none; stroke: #000000; stroke-width: 1.5; stroke-linecap: square"/>
   </g>
   <g id="line2d_30">
    <path d="M 253.005777 211.93985 
L 230.345865 172.691729 
L 275.66569 172.691729 
L 253.005777 211.93985 
" clip-path="url(#p6ba1527eaa)" style="fill: none; stroke: #000000; stroke-width: 1.5; stroke-linecap: square"/>
   </g>
   <g id="line2d_31">
    <path d="M 275.66569 172.691729 
L 298.325603 211.93985 
L 253.005777 211.93985 
L 275.66569 172.691729 
" clip-path="url(#p6ba1527eaa)" style="fill: none; stroke: #000000; stroke-width: 1.5; stroke-linecap: square"/>
   </g>
   <g id="line2d_32">
    <path d="M 298.325603 211.93985 
L 275.66569 172.691729 
L 320.985516 172.691729 
L 298.325603 211.93985 
" clip-path="url(#p6ba1527eaa)" style="fill: none; stroke: #000000; stroke-width: 1.5; stroke-linecap: square"/>
   </g>
   <g id="line2d_33">
    <path d="M 320.985516 172.691729 
L 343.645429 211.93985 
L 298.325603 211.93985 
L 320.985516 172.691729 
" clip-path="url(#p6ba1527eaa)" style="fill: none; stroke: #000000; stroke-width: 1.5; stroke-linecap: square"/>
   </g>
   <g id="line2d_34">
    <path d="M 117.046301 211.93985 
L 139.706213 251.18797 
L 94.386388 251.18797 
L 117.046301 211.93985 
" clip-path="url(#p6ba1527eaa)" style="fill: none; stroke: #000000; stroke-width: 1.5; stroke-linecap: square"/>
   </g>
   <g id="line2d_35">
    <path d="M 139.706213 251.18797 
L 117.046301 211.93985 
L 162.366126 211.93985 
L 139.706213 251.18797 
" clip-path="url(#p6ba1527eaa)" style="fill: none; stroke: #000000; stroke-width: 1.5; stroke-linecap: square"/>
   </g>
   <g id="line2d_36">
    <path d="M 162.366126 211.93985 
L 185.026039 251.18797 
L 139.706213 251.18797 
L 162.366126 211.93985 
" clip-path="url(#p6ba1527eaa)" style="fill: none; stroke: #000000; stroke-width: 1.5; stroke-linecap: square"/>
   </g>
   <g id="line2d_37">
    <path d="M 185.026039 251.18797 
L 162.366126 211.93985 
L 207.685952 211.93985 
L 185.026039 251.18797 
" clip-path="url(#p6ba1527eaa)" style="fill: none; stroke: #000000; stroke-width: 1.5; stroke-linecap: square"/>
   </g>
   <g id="line2d_38">
    <path d="M 207.685952 211.93985 
L 230.345865 251.18797 
L 185.026039 251.18797 
L 207.685952 211.93985 
" clip-path="url(#p6ba1527eaa)" style="fill: none; stroke: #000000; stroke-width: 1.5; stroke-linecap: square"/>
   </g>
   <g id="line2d_39">
    <path d="M 230.345865 251.18797 
L 207.685952 211.93985 
L 253.005777 211.93985 
L 230.345865 251.18797 
" clip-path="url(#p6ba1527eaa)" style="fill: none; stroke: #000000; stroke-width: 1.5; stroke-linecap: square"/>
   </g>
   <g id="line2d_40">
    <path d="M 253.005777 211.93985 
L 275.66569 251.18797 
L 230.345865 251.18797 
L 253.005777 211.93985 
" clip-path="url(#p6ba1527eaa)" style="fill: none; stroke: #000000; stroke-width: 1.5; stroke-linecap: square"/>
   </g>
   <g id="line2d_41">
    <path d="M 275.66569 251.18797 
L 253.005777 211.93985 
L 298.325603 211.93985 
L 275.66569 251.18797 
" clip-path="url(#p6ba1527eaa)" style="fill: none; stroke: #000000; stroke-width: 1.5; stroke-linecap: square"/>
   </g>
   <g id="line2d_42">
    <path d="M 298.325603 211.93985 
L 320.985516 251.18797 
L 275.66569 251.18797 
L 298.325603 211.93985 
" clip-path="url(#p6ba1527eaa)" style="fill: none; stroke: #000000; stroke-width: 1.5; stroke-linecap: square"/>
   </g>
   <g id="line2d_43">
    <path d="M 320.985516 251.18797 
L 298.325603 211.93985 
L 343.645429 211.93985 
L 320.985516 251.18797 
" clip-path="url(#p6ba1527eaa)" style="fill: none; stroke: #000000; stroke-width: 1.5; stroke-linecap: square"/>
   </g>
   <g id="line2d_44">
    <path d="M 343.645429 211.93985 
L 366.305342 251.18797 
L 320.985516 251.18797 
L 343.645429 211.93985 
" clip-path="url(#p6ba1527eaa)" style="fill: none; stroke: #000000; stroke-width: 1.5; stroke-linecap: square"/>
   </g>
   <g id="line2d_45">
    <path d="M 207.685952 290.43609 
L 185.026039 251.18797 
L 230.345865 251.18797 
L 207.685952 290.43609 
" clip-path="url(#p6ba1527eaa)" style="fill: none; stroke: #000000; stroke-width: 1.5; stroke-linecap: square"/>
   </g>
   <g id="line2d_46">
    <path d="M 230.345865 251.18797 
L 253.005777 290.43609 
L 207.685952 290.43609 
L 230.345865 251.18797 
" clip-path="url(#p6ba1527eaa)" style="fill: none; stroke: #000000; stroke-width: 1.5; stroke-linecap: square"/>
   </g>
   <g id="line2d_47">
    <path d="M 253.005777 290.43609 
L 230.345865 251.18797 
L 275.66569 251.18797 
L 253.005777 290.43609 
" clip-path="url(#p6ba1527eaa)" style="fill: none; stroke: #000000; stroke-width: 1.5; stroke-linecap: square"/>
   </g>
   <g id="line2d_48">
    <path d="M 230.345865 329.684211 
L 207.685952 290.43609 
L 253.005777 290.43609 
L 230.345865 329.684211 
" clip-path="url(#p6ba1527eaa)" style="fill: none; stroke: #000000; stroke-width: 1.5; stroke-linecap: square"/>
   </g>
   <g id="line2d_49">
    <path d="M 320.985516 198.857143 
" clip-path="url(#p6ba1527eaa)" style="fill: none; stroke: #000000; stroke-width: 1.5; stroke-linecap: square"/>
    <defs>
     <path id="m326633d5f0" d="M 0 -5 
L -1.12257 -1.545085 
L -4.755283 -1.545085 
L -1.816356 0.59017 
L -2.938926 4.045085 
L -0 1.90983 
L 2.938926 4.045085 
L 1.816356 0.59017 
L 4.755283 -1.545085 
L 1.12257 -1.545085 
z
" style="stroke: #000000; stroke-linejoin: bevel"/>
    </defs>
    <g clip-path="url(#p6ba1527eaa)">
     <use xlink:href="#m326633d5f0" x="320.985516" y="198.857143" style="stroke: #000000; stroke-linejoin: bevel"/>
    </g>
   </g>
   <g id="line2d_50">
    <path d="M 185.026039 225.022556 
" clip-path="url(#p6ba1527eaa)" style="fill: none; stroke: #000000; stroke-width: 1.5; stroke-linecap: square"/>
    <g clip-path="url(#p6ba1527eaa)">
     <use xlink:href="#m326633d5f0" x="185.026039" y="225.022556" style="stroke: #000000; stroke-linejoin: bevel"/>
    </g>
   </g>
   <g id="line2d_51">
    <path d="M 185.026039 146.526316 
" clip-path="url(#p6ba1527eaa)" style="fill: none; stroke: #000000; stroke-width: 1.5; stroke-linecap: square"/>
    <g clip-path="url(#p6ba1527eaa)">
     <use xlink:href="#m326633d5f0" x="185.026039" y="146.526316" style="stroke: #000000; stroke-linejoin: bevel"/>
    </g>
   </g>
   <g id="line2d_52">
    <path d="M 230.345865 120.360902 
" clip-path="url(#p6ba1527eaa)" style="fill: none; stroke: #000000; stroke-width: 1.5; stroke-linecap: square"/>
    <g clip-path="url(#p6ba1527eaa)">
     <use xlink:href="#m326633d5f0" x="230.345865" y="120.360902" style="stroke: #000000; stroke-linejoin: bevel"/>
    </g>
   </g>
   <g id="line2d_53">
    <path d="M 343.645429 107.278195 
" clip-path="url(#p6ba1527eaa)" style="fill: none; stroke: #000000; stroke-width: 1.5; stroke-linecap: square"/>
    <g clip-path="url(#p6ba1527eaa)">
     <use xlink:href="#m326633d5f0" x="343.645429" y="107.278195" style="stroke: #000000; stroke-linejoin: bevel"/>
    </g>
   </g>
   <g id="line2d_54">
    <path d="M 253.005777 81.112782 
" clip-path="url(#p6ba1527eaa)" style="fill: none; stroke: #000000; stroke-width: 1.5; stroke-linecap: square"/>
    <g clip-path="url(#p6ba1527eaa)">
     <use xlink:href="#m326633d5f0" x="253.005777" y="81.112782" style="stroke: #000000; stroke-linejoin: bevel"/>
    </g>
   </g>
   <g id="line2d_55">
    <path d="M 207.685952 185.774436 
" clip-path="url(#p6ba1527eaa)" style="fill: none; stroke: #000000; stroke-width: 1.5; stroke-linecap: square"/>
    <g clip-path="url(#p6ba1527eaa)">
     <use xlink:href="#m326633d5f0" x="207.685952" y="185.774436" style="stroke: #000000; stroke-linejoin: bevel"/>
    </g>
   </g>
  </g>
 </g>
 <defs>
  <clipPath id="p6ba1527eaa">
   <rect x="92.977444" y="0" width="274.736842" height="345.383459"/>
  </clipPath>
 </defs>
</svg>
